<?xml version="1.0" encoding="UTF-8" standalone="no"?>
<!DOCTYPE svg PUBLIC "-//W3C//DTD SVG 1.1//EN"
 "http://www.w3.org/Graphics/SVG/1.1/DTD/svg11.dtd">
<!-- Generated by graphviz version 2.38.0 (20140413.2041)
 -->
<!-- Title: D Pages: 1 -->
<svg width="321pt" height="222pt"
 viewBox="0.00 0.00 321.00 222.00" xmlns="http://www.w3.org/2000/svg" xmlns:xlink="http://www.w3.org/1999/xlink">
<g id="graph0" class="graph" transform="scale(1 1) rotate(0) translate(4 218)">
<title>D</title>
<polygon fill="white" stroke="none" points="-4,4 -4,-218 317,-218 317,4 -4,4"/>
<!-- task_menu -->
<g id="node1" class="node"><title>task_menu</title>
<text text-anchor="start" x="16.5" y="-200.1" font-family="Sans serif" font-weight="bold" font-size="8.00">Task 1</text>
<text text-anchor="start" x="16.5" y="-185.1" font-family="Sans serif" font-size="8.00">Choose Menu</text>
<text text-anchor="start" x="16.5" y="-171.1" font-family="Sans serif" font-size="8.00" fill="darkgreen">done</text>
<polygon fill="none" stroke="black" points="12.5,-165 12.5,-210 78.5,-210 78.5,-165 12.5,-165"/>
</g>
<!-- task_ingredients -->
<g id="node2" class="node"><title>task_ingredients</title>
<text text-anchor="start" x="12.5" y="-111.1" font-family="Sans serif" font-weight="bold" font-size="8.00">Task 2</text>
<text text-anchor="start" x="12.5" y="-96.1" font-family="Sans serif" font-size="8.00">Buy ingredients</text>
<text text-anchor="start" x="12.5" y="-82.1" font-family="Sans serif" font-size="8.00" fill="darkgreen">done</text>
<polygon fill="none" stroke="black" points="8,-76 8,-121 83,-121 83,-76 8,-76"/>
</g>
<!-- task_menu&#45;&gt;task_ingredients -->
<g id="edge1" class="edge"><title>task_menu&#45;&gt;task_ingredients</title>
<path fill="none" stroke="black" d="M45.5,-160.868C45.5,-152.886 45.5,-143.932 45.5,-135.384"/>
<polygon fill="black" stroke="black" points="49.0001,-135.25 45.5,-125.25 42.0001,-135.25 49.0001,-135.25"/>
</g>
<!-- task_cook -->
<g id="node7" class="node"><title>task_cook</title>
<text text-anchor="middle" x="99.5" y="-16.1" font-family="Sans serif" font-size="8.00">task_cook</text>
</g>
<!-- task_ingredients&#45;&gt;task_cook -->
<g id="edge2" class="edge"><title>task_ingredients&#45;&gt;task_cook</title>
<path fill="none" stroke="black" d="M63.1816,-71.7962C69.1797,-63.0768 75.877,-53.3409 81.8709,-44.6275"/>
<polygon fill="black" stroke="black" points="84.7945,-46.553 87.5784,-36.3304 79.0273,-42.5857 84.7945,-46.553"/>
</g>
<!-- task_invitation -->
<g id="node3" class="node"><title>task_invitation</title>
<text text-anchor="start" x="121.5" y="-111.1" font-family="Sans serif" font-weight="bold" font-size="8.00">Task 4</text>
<text text-anchor="start" x="121.5" y="-96.1" font-family="Sans serif" font-size="8.00">Send invitation</text>
<text text-anchor="start" x="121.5" y="-82.1" font-family="Sans serif" font-size="8.00" fill="darkgreen">done</text>
<polygon fill="none" stroke="black" points="117.5,-76 117.5,-121 189.5,-121 189.5,-76 117.5,-76"/>
</g>
<!-- task_invitation&#45;&gt;task_cook -->
<g id="edge3" class="edge"><title>task_invitation&#45;&gt;task_cook</title>
<path fill="none" stroke="black" d="M135.818,-71.7962C129.82,-63.0768 123.123,-53.3409 117.129,-44.6275"/>
<polygon fill="black" stroke="black" points="119.973,-42.5857 111.422,-36.3304 114.206,-46.553 119.973,-42.5857"/>
</g>
<!-- task_cooking -->
<g id="node4" class="node"><title>task_cooking</title>
<text text-anchor="start" x="189.5" y="-200.1" font-family="Sans serif" font-weight="bold" font-size="8.00">Task 5</text>
<text text-anchor="start" x="189.5" y="-185.1" font-family="Sans serif" font-size="8.00">Cook</text>
<text text-anchor="start" x="189.5" y="-171.1" font-family="Sans serif" font-size="8.00" fill="red">todo</text>
<polygon fill="none" stroke="black" points="185,-165 185,-210 224,-210 224,-165 185,-165"/>
</g>
<!-- task_eat -->
<g id="node6" class="node"><title>task_eat</title>
<text text-anchor="start" x="228.5" y="-111.1" font-family="Sans serif" font-weight="bold" font-size="8.00">Task 6</text>
<text text-anchor="start" x="228.5" y="-96.1" font-family="Sans serif" font-size="8.00">Eat</text>
<text text-anchor="start" x="228.5" y="-82.1" font-family="Sans serif" font-size="8.00" fill="red">todo</text>
<polygon fill="none" stroke="black" points="224,-76 224,-121 263,-121 263,-76 224,-76"/>
</g>
<!-- task_cooking&#45;&gt;task_eat -->
<g id="edge5" class="edge"><title>task_cooking&#45;&gt;task_eat</title>
<path fill="none" stroke="black" d="M215.99,-160.868C219.686,-152.622 223.847,-143.341 227.793,-134.54"/>
<polygon fill="black" stroke="black" points="231.06,-135.807 231.957,-125.25 224.673,-132.943 231.06,-135.807"/>
</g>
<!-- task_table -->
<g id="node5" class="node"><title>task_table</title>
<text text-anchor="start" x="262.5" y="-200.1" font-family="Sans serif" font-weight="bold" font-size="8.00">Task 3</text>
<text text-anchor="start" x="262.5" y="-185.1" font-family="Sans serif" font-size="8.00">Lay table</text>
<text text-anchor="start" x="262.5" y="-171.1" font-family="Sans serif" font-size="8.00" fill="red">todo</text>
<polygon fill="none" stroke="black" points="258,-165 258,-210 305,-210 305,-165 258,-165"/>
</g>
<!-- task_table&#45;&gt;task_eat -->
<g id="edge4" class="edge"><title>task_table&#45;&gt;task_eat</title>
<path fill="none" stroke="black" d="M270.304,-160.868C266.703,-152.622 262.649,-143.341 258.805,-134.54"/>
<polygon fill="black" stroke="black" points="261.957,-133.013 254.747,-125.25 255.542,-135.815 261.957,-133.013"/>
</g>
</g>
</svg>
