<?xml version="1.0" encoding="UTF-8" standalone="no"?>
<!DOCTYPE svg PUBLIC "-//W3C//DTD SVG 1.1//EN"
 "http://www.w3.org/Graphics/SVG/1.1/DTD/svg11.dtd">
<!-- Generated by graphviz version 2.38.0 (20140413.2041)
 -->
<!-- Title: D Pages: 1 -->
<svg width="216pt" height="328pt"
 viewBox="0.00 0.00 216.00 328.00" xmlns="http://www.w3.org/2000/svg" xmlns:xlink="http://www.w3.org/1999/xlink">
<g id="graph0" class="graph" transform="scale(1 1) rotate(0) translate(4 324)">
<title>D</title>
<polygon fill="white" stroke="none" points="-4,4 -4,-324 212,-324 212,4 -4,4"/>
<!-- task_menu -->
<g id="node1" class="node"><title>task_menu</title>
<text text-anchor="start" x="16.5" y="-306.1" font-family="Sans serif" font-weight="bold" font-size="8.00">Task 1</text>
<text text-anchor="start" x="16.5" y="-291.1" font-family="Sans serif" font-size="8.00">Choose Menu</text>
<text text-anchor="start" x="16.5" y="-277.1" font-family="Sans serif" font-size="8.00" fill="darkgreen">done</text>
<polygon fill="none" stroke="black" points="12.5,-271 12.5,-316 78.5,-316 78.5,-271 12.5,-271"/>
</g>
<!-- task_ingredients -->
<g id="node2" class="node"><title>task_ingredients</title>
<text text-anchor="start" x="12.5" y="-217.1" font-family="Sans serif" font-weight="bold" font-size="8.00">Task 2</text>
<text text-anchor="start" x="12.5" y="-202.1" font-family="Sans serif" font-size="8.00">Buy ingredients</text>
<text text-anchor="start" x="12.5" y="-188.1" font-family="Sans serif" font-size="8.00" fill="darkgreen">done</text>
<polygon fill="none" stroke="black" points="8,-182 8,-227 83,-227 83,-182 8,-182"/>
</g>
<!-- task_menu&#45;&gt;task_ingredients -->
<g id="edge1" class="edge"><title>task_menu&#45;&gt;task_ingredients</title>
<path fill="none" stroke="black" d="M45.5,-266.868C45.5,-258.886 45.5,-249.932 45.5,-241.384"/>
<polygon fill="black" stroke="black" points="49.0001,-241.25 45.5,-231.25 42.0001,-241.25 49.0001,-241.25"/>
</g>
<!-- task_cook -->
<g id="node4" class="node"><title>task_cook</title>
<text text-anchor="start" x="84.5" y="-128.1" font-family="Sans serif" font-weight="bold" font-size="8.00">Task 5</text>
<text text-anchor="start" x="84.5" y="-113.1" font-family="Sans serif" font-size="8.00">Cook</text>
<text text-anchor="start" x="84.5" y="-99.1" font-family="Sans serif" font-size="8.00" fill="red">todo</text>
<polygon fill="none" stroke="black" points="80,-93 80,-138 119,-138 119,-93 80,-93"/>
</g>
<!-- task_ingredients&#45;&gt;task_cook -->
<g id="edge2" class="edge"><title>task_ingredients&#45;&gt;task_cook</title>
<path fill="none" stroke="black" d="M61.4097,-177.868C66.6363,-169.447 72.534,-159.945 78.0996,-150.978"/>
<polygon fill="black" stroke="black" points="81.2175,-152.592 83.5174,-142.25 75.27,-148.9 81.2175,-152.592"/>
</g>
<!-- task_invitation -->
<g id="node3" class="node"><title>task_invitation</title>
<text text-anchor="start" x="121.5" y="-217.1" font-family="Sans serif" font-weight="bold" font-size="8.00">Task 4</text>
<text text-anchor="start" x="121.5" y="-202.1" font-family="Sans serif" font-size="8.00">Send invitation</text>
<text text-anchor="start" x="121.5" y="-188.1" font-family="Sans serif" font-size="8.00" fill="darkgreen">done</text>
<polygon fill="none" stroke="black" points="117.5,-182 117.5,-227 189.5,-227 189.5,-182 117.5,-182"/>
</g>
<!-- task_invitation&#45;&gt;task_cook -->
<g id="edge3" class="edge"><title>task_invitation&#45;&gt;task_cook</title>
<path fill="none" stroke="black" d="M137.59,-177.868C132.364,-169.447 126.466,-159.945 120.9,-150.978"/>
<polygon fill="black" stroke="black" points="123.73,-148.9 115.483,-142.25 117.783,-152.592 123.73,-148.9"/>
</g>
<!-- task_eat -->
<g id="node6" class="node"><title>task_eat</title>
<text text-anchor="start" x="122.5" y="-39.1" font-family="Sans serif" font-weight="bold" font-size="8.00">Task 6</text>
<text text-anchor="start" x="122.5" y="-24.1" font-family="Sans serif" font-size="8.00">Eat</text>
<text text-anchor="start" x="122.5" y="-10.1" font-family="Sans serif" font-size="8.00" fill="red">todo</text>
<polygon fill="none" stroke="black" points="118,-4 118,-49 157,-49 157,-4 118,-4"/>
</g>
<!-- task_cook&#45;&gt;task_eat -->
<g id="edge5" class="edge"><title>task_cook&#45;&gt;task_eat</title>
<path fill="none" stroke="black" d="M110.696,-88.8677C114.297,-80.6225 118.351,-71.3407 122.195,-62.5395"/>
<polygon fill="black" stroke="black" points="125.458,-63.8147 126.253,-53.2497 119.043,-61.0128 125.458,-63.8147"/>
</g>
<!-- task_table -->
<g id="node5" class="node"><title>task_table</title>
<text text-anchor="start" x="157.5" y="-128.1" font-family="Sans serif" font-weight="bold" font-size="8.00">Task 3</text>
<text text-anchor="start" x="157.5" y="-113.1" font-family="Sans serif" font-size="8.00">Lay table</text>
<text text-anchor="start" x="157.5" y="-99.1" font-family="Sans serif" font-size="8.00" fill="red">todo</text>
<polygon fill="none" stroke="black" points="153,-93 153,-138 200,-138 200,-93 153,-93"/>
</g>
<!-- task_table&#45;&gt;task_eat -->
<g id="edge4" class="edge"><title>task_table&#45;&gt;task_eat</title>
<path fill="none" stroke="black" d="M165.01,-88.8677C161.314,-80.6225 157.153,-71.3407 153.207,-62.5395"/>
<polygon fill="black" stroke="black" points="156.327,-60.9431 149.043,-53.2497 149.94,-63.8066 156.327,-60.9431"/>
</g>
</g>
</svg>
